<?xml version="1.0" encoding="UTF-8" standalone="no"?>
<!-- Created with Inkscape (http://www.inkscape.org/) -->

<svg
   xmlns:dc="http://purl.org/dc/elements/1.1/"
   xmlns:cc="http://creativecommons.org/ns#"
   xmlns:rdf="http://www.w3.org/1999/02/22-rdf-syntax-ns#"
   xmlns:svg="http://www.w3.org/2000/svg"
   xmlns="http://www.w3.org/2000/svg"
   xmlns:sodipodi="http://sodipodi.sourceforge.net/DTD/sodipodi-0.dtd"
   xmlns:inkscape="http://www.inkscape.org/namespaces/inkscape"
   version="1.1"
   id="svg4572"
   width="51.200001"
   height="51.200001"
   viewBox="0 0 51.200001 51.200001"
   sodipodi:docname="transmission.svg"
   inkscape:version="0.92.5 (2060ec1f9f, 2020-04-08)">
  <metadata
     id="metadata4578">
    <rdf:RDF>
      <cc:Work
         rdf:about="">
        <dc:format>image/svg+xml</dc:format>
        <dc:type
           rdf:resource="http://purl.org/dc/dcmitype/StillImage" />
        <dc:title />
      </cc:Work>
    </rdf:RDF>
  </metadata>
  <defs
     id="defs4576" />
  <sodipodi:namedview
     pagecolor="#ffffff"
     bordercolor="#666666"
     borderopacity="1"
     objecttolerance="10"
     gridtolerance="10"
     guidetolerance="10"
     inkscape:pageopacity="0"
     inkscape:pageshadow="2"
     inkscape:window-width="3840"
     inkscape:window-height="2104"
     id="namedview4574"
     showgrid="false"
     inkscape:zoom="36.347656"
     inkscape:cx="27.921296"
     inkscape:cy="25.6"
     inkscape:window-x="5160"
     inkscape:window-y="755"
     inkscape:window-maximized="0"
     inkscape:current-layer="svg4572" />
  <path
     style="fill:#ffffff;stroke-width:1.06666672"
     d="m 5.0410654,45.84649 c -0.707807,-1.844516 1.202179,-19.730697 2.71347,-25.410451 0.801382,-3.011766 1.19875,-3.218542 6.7553046,-3.515207 5.547145,-0.296164 5.875031,-0.46589 5.427067,-2.809263 -0.39679,-2.075675 -1.33569,-2.607996 -5.596969,-3.173275 C 8.4767464,10.160515 5.8366324,7.9021082 7.5693824,5.1466274 10.025764,1.2404009 40.001041,1.300014 42.463861,5.2160234 c 1.714361,2.7259213 -1.302903,5.2097696 -7.125872,5.8661016 -4.015695,0.452628 -4.890105,0.961447 -5.295353,3.081366 -0.456032,2.385576 -0.179557,2.539214 4.569407,2.539214 3.027146,0 5.55108,0.597969 6.291973,1.49069 1.575608,1.898492 4.998784,25.165977 4.061744,27.607863 -0.629925,1.641558 -2.733091,1.834781 -19.971026,1.834781 -17.0491956,0 -19.3459996,-0.20599 -19.9536686,-1.789549 z M 43.859757,41.236039 c 0.145194,-3.513575 -0.01035,-4.085319 -0.580411,-2.133333 l -0.778767,2.666667 -17.875502,0.292711 -17.8755036,0.292711 0.527578,-6.692711 0.527578,-6.692711 -1.127126,7.179134 c -0.619919,3.948523 -0.842866,7.919905 -0.495437,8.82529 0.541788,1.411875 3.253765,1.604605 19.0554616,1.3542 L 43.661401,46.03604 Z m -2.433619,-0.90174 c 0.306519,-0.495959 0.797797,-3.015959 1.091727,-5.6 l 0.534421,-4.69826 -1.144167,5.066667 -1.144167,5.066667 H 25.129296 9.4946424 l 0.7318946,-8.8 c 0.402542,-4.84 0.770063,-9.400001 0.816712,-10.133334 0.05449,-0.856571 1.801166,-1.333333 4.884818,-1.333333 2.640001,0 4.800001,-0.48 4.800001,-1.066667 0,-1.502985 -10.374816,-1.335178 -11.3130896,0.182982 -0.424779,0.687308 -0.814996,5.967308 -0.867148,11.733334 l -0.09482,10.483684 H 24.660921 c 8.914352,0 16.4587,-0.405783 16.765218,-0.90174 z M 20.061102,37.212321 c -1.995676,-1.622401 -2.203718,-2.640753 -1.738463,-8.509615 0.349537,-4.409155 0.988248,-6.666667 1.886177,-6.666667 0.746721,0 1.633965,0.72 1.971653,1.6 0.337688,0.88 1.604107,1.6 2.814265,1.6 1.210158,0 2.476577,-0.72 2.814266,-1.6 0.337687,-0.88 1.224931,-1.6 1.971652,-1.6 1.456378,0 2.992557,13.074748 1.602412,13.638468 -0.413857,0.167824 -1.660537,0.992559 -2.770399,1.832743 -1.822848,1.379928 -1.386848,1.530889 4.509957,1.561533 l 6.527889,0.03392 1.244466,-6.3255 C 42.125976,26.520148 41.686109,21.687277 39.65038,19.102703 38.406945,17.52403 29.261401,17.28928 29.261401,18.836036 c 0,0.586667 1.891672,1.066667 4.203715,1.066667 2.312044,0 4.460214,0.415023 4.773711,0.922273 0.313499,0.50725 0.809535,3.74725 1.102303,7.2 l 0.532308,6.277727 -1.306019,-6.4 -1.306018,-6.4 -4.533333,-0.327998 c -4.877689,-0.352912 -5.186279,-0.94061 -3.891977,-7.412122 0.573892,-2.869458 1.134857,-3.262412 5.33275,-3.735575 C 36.749107,9.7361746 39.604586,8.8804613 40.514352,8.1254235 41.962771,6.9233458 41.975258,6.5594188 40.614771,5.198932 38.542767,3.1269277 11.971224,2.9417321 9.5126584,4.9821597 c -2.491754,2.0679726 -0.04277,4.1019326 5.8858446,4.8883929 4.622006,0.6131314 5.17365,0.9859144 5.754164,3.8884814 1.335448,6.677242 1.03835,7.210338 -4.018368,7.210338 -4.55674,0 -4.675146,0.089 -5.321594,4.000001 -0.363637,2.2 -0.666441,6.28 -0.672898,9.066666 l -0.01174,5.066667 5.6,-0.02372 c 5.470734,-0.02317 5.547672,-0.06626 3.333035,-1.866665 z m 7.841184,-1.042948 c 2.738213,-1.727318 2.932713,-2.304623 2.605445,-7.733334 l -0.35367,-5.866667 -1.789683,3.733334 c -2.272965,4.741474 -4.473498,4.741653 -6.712142,5.47e-4 l -1.762538,-3.732785 -0.380816,6.181609 c -0.322137,5.229123 -0.05211,6.412 1.752519,7.676837 2.790126,1.955566 3.151818,1.941431 6.640885,-0.259541 z m -1.018663,-8.6 c 0.235852,-0.707556 -0.558674,-1.266667 -1.8,-1.266667 -2.215814,0 -2.879928,1.120072 -1.488889,2.511111 0.988237,0.988237 2.769301,0.314321 3.288889,-1.244444 z"
     id="path4592"
     inkscape:connector-curvature="0" />
</svg>
